<?xml version="1.0" encoding="UTF-8" standalone="no"?>
<svg
   version="1.0"
   width="589.000000pt"
   height="414.000000pt"
   viewBox="0 0 589.000000 414.000000"
   preserveAspectRatio="xMidYMid meet"
   id="svg14"
   sodipodi:docname="icon.svg"
   inkscape:version="1.1.2 (0a00cf5339, 2022-02-04)"
   xmlns:inkscape="http://www.inkscape.org/namespaces/inkscape"
   xmlns:sodipodi="http://sodipodi.sourceforge.net/DTD/sodipodi-0.dtd"
   xmlns="http://www.w3.org/2000/svg"
   xmlns:svg="http://www.w3.org/2000/svg">
  <defs
     id="defs18" />
  <sodipodi:namedview
     id="namedview16"
     pagecolor="#ffffff"
     bordercolor="#666666"
     borderopacity="1.0"
     inkscape:pageshadow="2"
     inkscape:pageopacity="0.0"
     inkscape:pagecheckerboard="0"
     inkscape:document-units="pt"
     showgrid="false"
     inkscape:zoom="1.2355072"
     inkscape:cx="392.95601"
     inkscape:cy="276"
     inkscape:window-width="1920"
     inkscape:window-height="1031"
     inkscape:window-x="0"
     inkscape:window-y="25"
     inkscape:window-maximized="1"
     inkscape:current-layer="svg14" />
  <g
     transform="translate(0.000000,414.000000) scale(0.100000,-0.100000)"
     fill="#000000"
     stroke="none"
     id="g12">
    <path
       d="M1735 3764 c-78 -20 -232 -71 -291 -99 -298 -137 -740 -585 -879 -890 -70 -154 -103 -367 -75 -486 46 -195 246 -418 468 -522 174 -82 483 -29 749 129 86 51 260 181 318 239 53 52 181 233 207 292 29 66 28 155 -1 216 -27 56 -111 134 -186 172 -95 48 -164 50 -555 21 l-345 -26 -100 -51 c-55 -28 -103 -55 -108 -58 -9 -9 135 -169 175 -195 27 -18 43 -19 196 -12 92 4 192 11 222 16 71 11 400 25 400 17 0 -38 -229 -264 -350 -347 -127 -86 -266 -132 -405 -134 -79 0 -97 3 -146 27 -191 93 -256 323 -153 536 111 226 338 489 546 629 72 49 218 120 312 152 99 33 148 67 188 129 34 54 37 111 9 158 -35 56 -136 101 -196 87z"
       id="path2" />
    <path
       d="M4066 3633 c-85 -25 -138 -70 -263 -220 l-42 -50 -100 -11 c-55 -7 -123 -21 -152 -33 -151 -59 -256 -195 -309 -399 -17 -67 -23 -124 -27 -270 -3 -102 -9 -189 -13 -195 -4 -5 -13 -27 -19 -47 -20 -61 0 -108 84 -202 l73 -83 -5 -65 c-5 -55 -2 -74 17 -113 40 -83 124 -121 233 -104 192 29 202 27 289 -74 88 -102 120 -176 126 -292 6 -115 -13 -206 -75 -359 -93 -234 -185 -343 -361 -429 -60 -30 -63 -31 -105 -17 -33 12 -46 23 -60 55 -43 96 -53 110 -95 133 -56 31 -99 24 -147 -25 -40 -42 -43 -61 -20 -178 17 -92 38 -127 112 -195 71 -65 134 -97 220 -111 61 -11 76 -10 148 10 134 37 227 93 336 201 108 108 187 221 258 371 86 180 120 372 101 569 -29 308 -155 520 -369 622 -38 18 -70 35 -70 38 0 3 18 19 40 37 212 170 285 527 175 855 -27 81 -25 91 25 169 32 51 90 94 158 118 55 20 81 64 81 139 0 77 -18 103 -94 140 -74 36 -81 37 -150 15z m-338 -616 c36 -38 54 -105 59 -217 6 -122 -5 -190 -47 -278 -40 -84 -68 -121 -114 -144 -67 -34 -116 -8 -141 75 -22 73 -18 195 9 314 19 85 31 113 69 169 71 102 122 127 165 81z"
       id="path4" />
    <path
       d="M2579 3351 c-66 -42 -93 -75 -85 -104 20 -80 224 -295 300 -316 97 -26 169 57 152 176 -7 45 -14 55 -104 141 -53 52 -110 102 -127 113 -42 27 -84 24 -136 -10z"
       id="path6" />
    <path
       d="M4927 2980 c-21 -6 -52 -18 -70 -27 -22 -12 -65 -19 -132 -23 -165 -9 -216 -51 -274 -226 -82 -246 -38 -493 121 -682 169 -200 394 -262 596 -164 171 82 352 400 352 616 -1 135 -44 257 -120 334 -50 53 -159 124 -231 153 -61 24 -183 34 -242 19z m199 -341 c30 -28 59 -80 68 -124 19 -88 -123 -334 -219 -380 -66 -31 -119 10 -182 140 -38 80 -43 145 -16 203 23 48 112 136 171 167 62 33 139 30 178 -6z"
       id="path8" />
    <path
       d="M2575 2916 c-80 -36 -102 -83 -119 -253 -13 -128 -12 -154 10 -397 13 -144 31 -293 39 -333 19 -86 66 -185 102 -213 55 -43 135 -13 172 64 22 45 23 51 23 535 l1 490 -27 41 c-45 68 -132 97 -201 66z"
       id="path10" />
  </g>
  <path
     style="fill:#00ffff;stroke-width:0.809384"
     d="M 143.84627,320.41501 C 133.10806,319.0334 123.15148,314.54164 109.84234,305.07463 90.810332,291.53687 75.377071,272.64124 68.075583,253.93776 l -2.920158,-7.48028 0.04382,-14.56892 c 0.03906,-12.98605 0.289009,-15.62415 2.300559,-24.28152 4.272815,-18.38946 9.933903,-31.00749 21.606265,-48.15836 25.733871,-37.81223 68.793891,-78.083166 100.508401,-93.998246 8.47052,-4.250709 36.77569,-14.124844 42.89431,-14.963493 9.99809,-1.370392 23.58608,6.746772 26.16939,15.633017 1.43422,4.933548 0.95921,8.660296 -1.80755,14.181542 -4.28663,8.554218 -11.41352,13.983626 -24.74819,18.853684 -19.64043,7.173036 -36.44402,15.908326 -50.04869,26.017666 -10.15103,7.543 -31.02567,28.1736 -40.41401,39.94152 -13.61567,17.06673 -25.23051,36.58879 -29.13382,48.96774 -2.53239,8.03122 -3.10225,20.86457 -1.28849,29.01707 3.13923,14.11025 12.38618,26.10238 25.06358,32.50434 l 6.39485,3.22932 11.14971,0.26249 c 25.88446,0.60937 47.15304,-7.84413 70.41631,-27.98796 10.19461,-8.82758 29.02748,-27.88993 31.40128,-31.78389 3.21413,-5.27243 3.6329,-5.15208 -15.88309,-4.56493 -16.56152,0.49825 -23.96688,1.0008 -43.5044,2.95235 -4.45161,0.44466 -16.1086,1.0493 -25.90442,1.34363 -15.43596,0.46381 -18.14384,0.36282 -20.31024,-0.75747 -2.88165,-1.49016 -21.08305,-20.21514 -23.17851,-23.84525 l -1.40489,-2.43381 13.52383,-7.13872 13.52384,-7.13873 35.23004,-2.62878 c 46.717,-3.48593 62.34914,-4.02106 71.08169,-2.43335 11.20047,2.03642 19.91242,6.99777 30.31523,17.26416 6.17772,6.09672 9.16557,11.44275 10.34799,18.51524 1.70153,10.1774 -0.60625,18.01852 -9.10704,30.943 -13.34981,20.29686 -21.63439,29.48008 -37.4728,41.53749 -31.21756,23.76522 -56.57538,35.32745 -85.91336,39.17332 -10.08516,1.32205 -14.76679,1.38338 -23.16075,0.30338 z"
     id="path94"
     transform="scale(0.75)" />
  <path
     style="fill:#00ffff;stroke-width:0.809384"
     d="m 349.57878,323.35735 c -4.13474,-2.24779 -9.55981,-11.46345 -13.20624,-22.43372 -3.15287,-9.48536 -8.1792,-53.25412 -9.13629,-79.55778 -0.71427,-19.63049 1.76569,-40.1663 5.80988,-48.10981 2.22149,-4.3634 4.44851,-6.53093 9.11844,-8.87484 10.08833,-5.06351 21.18458,-1.4494 28.58814,9.3113 l 2.46098,3.57691 -0.24614,65.43335 -0.24614,65.43334 -2.83941,5.58298 c -3.61374,7.1055 -8.63466,10.86179 -14.45148,10.81156 -2.0642,-0.0178 -4.69749,-0.5458 -5.85174,-1.17329 z"
     id="path133"
     transform="scale(0.75)" />
  <path
     style="fill:#00ffff;stroke-width:0.809384"
     d="m 368.41864,158.58477 c -5.58666,-3.20375 -21.60981,-18.74954 -27.87443,-27.04401 -6.56648,-8.69412 -8.35101,-12.72534 -7.03726,-15.89702 1.37086,-3.30956 7.33543,-8.35025 13.43232,-11.35174 9.71491,-4.782636 13.00299,-3.15668 32.5787,16.11012 12.70292,12.50247 13.52522,14.01822 12.84005,23.66826 -1.02558,14.4445 -12.22287,21.2334 -23.93938,14.51439 z"
     id="path172"
     transform="scale(0.75)" />
  <path
     style="fill:#00ffff;stroke-width:0.809384"
     d="m 454.46921,504.53634 c -16.77449,-3.54337 -35.68357,-19.27244 -39.67508,-33.00276 -1.59086,-5.47236 -3.62447,-17.1105 -3.62587,-20.75049 -0.002,-5.65966 7.24587,-13.74862 13.42707,-14.98485 3.50855,-0.70171 8.60711,0.88949 12.64043,3.94494 2.72762,2.06632 4.43025,4.53935 7.92553,11.5117 4.15478,8.2879 4.70925,9.00779 8.31544,10.79628 5.52944,2.74233 8.94545,2.42528 16.88611,-1.5672 20.00131,-10.05646 31.89608,-22.58513 42.31134,-44.5662 4.63529,-9.78263 10.84165,-26.25779 12.91857,-34.29313 4.33284,-16.76321 3.2238,-36.08677 -2.79493,-48.69788 -4.62796,-9.69701 -18.34494,-25.71016 -23.80019,-27.78424 -3.1362,-1.19239 -12.83993,-0.99468 -23.25426,0.47379 -14.85106,2.09406 -22.55206,0.24951 -29.36433,-7.03336 -5.91026,-6.31854 -7.05774,-9.89826 -6.74344,-21.03717 l 0.26469,-9.38091 -5.72807,-6.40208 c -16.15481,-18.05568 -17.85486,-22.26924 -13.73855,-34.05104 1.77748,-5.08753 2.07448,-7.8381 2.87744,-26.64843 1.0451,-24.48324 2.19965,-33.48923 5.70568,-44.50687 7.6715,-24.10759 22.24103,-40.93641 40.83072,-47.16232 5.55718,-1.86117 16.58178,-3.86329 25.61306,-4.65145 l 6.18786,-0.54001 6.89713,-8.192239 c 9.19305,-10.919276 17.75677,-19.509011 22.76362,-22.832789 5.01464,-3.328955 14.9486,-6.808131 19.43899,-6.808131 2.14226,0 5.46741,1.02756 9.3685,2.895107 11.88827,5.691201 13.7477,8.284655 13.71893,19.134615 -0.0189,7.106155 -1.50613,11.859717 -4.55883,14.570687 -0.86223,0.7657 -4.10063,2.53875 -7.19642,3.9401 -11.52044,5.21487 -17.49635,10.67786 -22.80503,20.84765 -3.25281,6.23137 -3.22912,8.12351 0.23849,19.05354 3.92511,12.3721 5.28227,20.49567 5.76219,34.49085 0.64742,18.87971 -1.30694,31.50724 -7.13329,46.08982 -4.4876,11.23185 -9.34971,18.40181 -18.88972,27.85589 -10.23676,10.14456 -10.34345,8.82036 1.18103,14.66002 29.25652,14.82483 44.67695,41.82354 48.63088,85.14489 2.65628,29.10361 -4.89574,59.31341 -22.16124,88.65 -14.95101,25.40394 -37.17704,46.87493 -57.31517,55.36812 -8.71852,3.67701 -20.53659,6.80646 -25.40667,6.72775 -2.22581,-0.036 -6.59648,-0.60396 -9.71261,-1.2622 z m 29.38168,-269.48168 c 5.30937,-2.64578 8.89362,-6.8289 13.39673,-15.63517 7.15143,-13.98528 9.11614,-24.67148 7.83409,-42.61011 -0.855,-11.96327 -1.76332,-16.7473 -4.10882,-21.64076 -2.00254,-4.17795 -3.03079,-5.51486 -5.60753,-7.29081 -5.69775,-3.92702 -12.76151,0.54462 -21.38343,13.53657 -4.73347,7.13264 -6.49698,11.90283 -8.93767,24.17584 -4.77323,24.00225 -2.94403,42.22041 4.93362,49.13708 3.58676,3.14922 8.00124,3.25338 13.87301,0.32736 z"
     id="path211"
     transform="scale(0.75)" />
  <path
     style="fill:#00ffff;stroke-width:0.809384"
     d="m 652.36364,308.82102 c -14.0409,-3.01299 -25.53969,-9.63913 -37.23168,-21.45466 -23.06771,-23.31144 -31.76533,-55.64798 -23.54239,-87.52734 2.5987,-10.07487 6.59527,-20.08615 10.09452,-25.28647 5.77252,-8.57868 11.60855,-11.25706 27.6121,-12.67223 12.45154,-1.10107 13.16633,-1.25375 21.85337,-4.66797 6.81908,-2.68007 7.85325,-2.86009 16.18768,-2.81796 14.96155,0.0756 24.35726,3.14378 38.44575,12.55436 16.18585,10.81154 23.6169,20.8965 27.56361,37.40764 4.63439,19.38801 1.9846,35.45824 -9.74457,59.09816 -12.16529,24.51891 -27.69999,39.62777 -45.74279,44.48886 -6.82733,1.83943 -19.05239,2.26023 -25.4956,0.87761 z m 12.05824,-41.68215 c 7.21546,-3.68105 19.47456,-20.2336 25.1186,-33.91577 2.48665,-6.02807 2.88767,-7.89945 2.88767,-13.4753 0,-5.52994 -0.34022,-7.14656 -2.3309,-11.07545 -3.16125,-6.23919 -7.77088,-10.74128 -12.29469,-12.00787 -4.92218,-1.37812 -12.33149,-0.50736 -17.58932,2.06715 -7.97031,3.90268 -20.29708,15.83242 -23.8037,23.03699 -2.00599,4.12145 -2.31861,13.35764 -0.64765,19.13456 1.70887,5.90802 7.61843,17.47377 11.05466,21.63534 5.13743,6.22191 11.2804,7.82709 17.60533,4.60035 z"
     id="path250"
     transform="scale(0.75)" />
</svg>
